<svg width="42" height="42" viewBox="0 0 42 42" fill="none" xmlns="http://www.w3.org/2000/svg">
<path d="M7 6.125C7 4.67525 8.17525 3.5 9.625 3.5H32.375C33.8247 3.5 35 4.67525 35 6.125V35.875C35 37.3247 33.8247 38.5 32.375 38.5H9.625C8.17525 38.5 7 37.3247 7 35.875V6.125Z" fill="#933FE7"/>
<path fill-rule="evenodd" clip-rule="evenodd" d="M9.625 2.625H32.375C34.308 2.625 35.875 4.192 35.875 6.125V35.875C35.875 37.808 34.308 39.375 32.375 39.375H9.625C7.692 39.375 6.125 37.808 6.125 35.875V6.125C6.125 4.192 7.692 2.625 9.625 2.625ZM9.625 3.5C8.17525 3.5 7 4.67525 7 6.125V35.875C7 37.3247 8.17525 38.5 9.625 38.5H32.375C33.8247 38.5 35 37.3247 35 35.875V6.125C35 4.67525 33.8247 3.5 32.375 3.5H9.625Z" fill="#170460"/>
<path d="M7 9.625H35V35.875C35 37.3247 33.8247 38.5 32.375 38.5H9.625C8.17525 38.5 7 37.3247 7 35.875V9.625Z" fill="#C86DFF"/>
<path fill-rule="evenodd" clip-rule="evenodd" d="M12.25 22.75C12.25 22.5084 12.4459 22.3125 12.6875 22.3125H16.1875C16.4291 22.3125 16.625 22.5084 16.625 22.75C16.625 22.9916 16.4291 23.1875 16.1875 23.1875H12.6875C12.4459 23.1875 12.25 22.9916 12.25 22.75Z" fill="#D289FF"/>
<path fill-rule="evenodd" clip-rule="evenodd" d="M19.25 24.0625C19.25 23.8209 19.4459 23.625 19.6875 23.625H23.1875C23.4291 23.625 23.625 23.8209 23.625 24.0625C23.625 24.3041 23.4291 24.5 23.1875 24.5H19.6875C19.4459 24.5 19.25 24.3041 19.25 24.0625Z" fill="#D289FF"/>
<path fill-rule="evenodd" clip-rule="evenodd" d="M10.5 27.125C10.5 26.8834 10.6959 26.6875 10.9375 26.6875H13.125C13.3666 26.6875 13.5625 26.8834 13.5625 27.125C13.5625 27.3666 13.3666 27.5625 13.125 27.5625H10.9375C10.6959 27.5625 10.5 27.3666 10.5 27.125Z" fill="#D289FF"/>
<path fill-rule="evenodd" clip-rule="evenodd" d="M7 21C7 20.7584 7.19588 20.5625 7.4375 20.5625H9.625C9.86662 20.5625 10.0625 20.7584 10.0625 21C10.0625 21.2416 9.86662 21.4375 9.625 21.4375H7.4375C7.19588 21.4375 7 21.2416 7 21Z" fill="#D289FF"/>
<path fill-rule="evenodd" clip-rule="evenodd" d="M16.1875 28C16.1875 27.7584 16.3834 27.5625 16.625 27.5625H20.125C20.3666 27.5625 20.5625 27.7584 20.5625 28C20.5625 28.2416 20.3666 28.4375 20.125 28.4375H16.625C16.3834 28.4375 16.1875 28.2416 16.1875 28Z" fill="#D289FF"/>
<path fill-rule="evenodd" clip-rule="evenodd" d="M14.875 21C15.1166 21 15.3125 21.1959 15.3125 21.4375V23.625C15.3125 23.8666 15.1166 24.0625 14.875 24.0625C14.6334 24.0625 14.4375 23.8666 14.4375 23.625V21.4375C14.4375 21.1959 14.6334 21 14.875 21Z" fill="#D289FF"/>
<path fill-rule="evenodd" clip-rule="evenodd" d="M33.6875 21C33.9291 21 34.125 21.1959 34.125 21.4375V23.625C34.125 23.8666 33.9291 24.0625 33.6875 24.0625C33.4459 24.0625 33.25 23.8666 33.25 23.625V21.4375C33.25 21.1959 33.4459 21 33.6875 21Z" fill="#D289FF"/>
<path fill-rule="evenodd" clip-rule="evenodd" d="M11.8125 26.25C12.0541 26.25 12.25 26.4459 12.25 26.6875V28C12.25 28.2416 12.0541 28.4375 11.8125 28.4375C11.5709 28.4375 11.375 28.2416 11.375 28V26.6875C11.375 26.4459 11.5709 26.25 11.8125 26.25Z" fill="#D289FF"/>
<path fill-rule="evenodd" clip-rule="evenodd" d="M8.3125 20.125C8.55412 20.125 8.75 20.3209 8.75 20.5625V21.875C8.75 22.1166 8.55412 22.3125 8.3125 22.3125C8.07088 22.3125 7.875 22.1166 7.875 21.875V20.5625C7.875 20.3209 8.07088 20.125 8.3125 20.125Z" fill="#D289FF"/>
<path fill-rule="evenodd" clip-rule="evenodd" d="M17.9375 26.6875C18.1791 26.6875 18.375 26.8834 18.375 27.125V29.3125C18.375 29.5541 18.1791 29.75 17.9375 29.75C17.6959 29.75 17.5 29.5541 17.5 29.3125V27.125C17.5 26.8834 17.6959 26.6875 17.9375 26.6875Z" fill="#D289FF"/>
<path d="M21.875 22.3125C21.875 21.8293 22.2668 21.4375 22.75 21.4375H30.625C31.1082 21.4375 31.5 21.8293 31.5 22.3125V37.625H21.875V22.3125Z" fill="#B054E9"/>
<path fill-rule="evenodd" clip-rule="evenodd" d="M32.375 38.5H21V22.3125C21 21.346 21.7835 20.5625 22.75 20.5625H30.625C31.5915 20.5625 32.375 21.346 32.375 22.3125V38.5ZM22.75 21.4375C22.2668 21.4375 21.875 21.8293 21.875 22.3125V37.625H31.5V22.3125C31.5 21.8293 31.1082 21.4375 30.625 21.4375H22.75Z" fill="#170460"/>
<path fill-rule="evenodd" clip-rule="evenodd" d="M26.6875 21.4375C26.9291 21.4375 27.125 21.6334 27.125 21.875V37.1875C27.125 37.4291 26.9291 37.625 26.6875 37.625C26.4459 37.625 26.25 37.4291 26.25 37.1875V21.875C26.25 21.6334 26.4459 21.4375 26.6875 21.4375Z" fill="#9632D3"/>
<path fill-rule="evenodd" clip-rule="evenodd" d="M28.4375 21.4375C28.6791 21.4375 28.875 21.6334 28.875 21.875V37.1875C28.875 37.4291 28.6791 37.625 28.4375 37.625C28.1959 37.625 28 37.4291 28 37.1875V21.875C28 21.6334 28.1959 21.4375 28.4375 21.4375Z" fill="#9632D3"/>
<path fill-rule="evenodd" clip-rule="evenodd" d="M30.1875 21.4375C30.4291 21.4375 30.625 21.6334 30.625 21.875V37.1875C30.625 37.4291 30.4291 37.625 30.1875 37.625C29.9459 37.625 29.75 37.4291 29.75 37.1875V21.875C29.75 21.6334 29.9459 21.4375 30.1875 21.4375Z" fill="#9632D3"/>
<path fill-rule="evenodd" clip-rule="evenodd" d="M24.9375 21.4375C25.1791 21.4375 25.375 21.6334 25.375 21.875V37.1875C25.375 37.4291 25.1791 37.625 24.9375 37.625C24.6959 37.625 24.5 37.4291 24.5 37.1875V21.875C24.5 21.6334 24.6959 21.4375 24.9375 21.4375Z" fill="#9632D3"/>
<path fill-rule="evenodd" clip-rule="evenodd" d="M23.1875 21.4375C23.4291 21.4375 23.625 21.6334 23.625 21.875V37.1875C23.625 37.4291 23.4291 37.625 23.1875 37.625C22.9459 37.625 22.75 37.4291 22.75 37.1875V21.875C22.75 21.6334 22.9459 21.4375 23.1875 21.4375Z" fill="#9632D3"/>
<path fill-rule="evenodd" clip-rule="evenodd" d="M21.875 22.3125C21.875 21.8293 22.2668 21.4375 22.75 21.4375H30.625C30.8666 21.4375 31.0625 21.6334 31.0625 21.875C31.0625 22.1166 30.8666 22.3125 30.625 22.3125H22.75V35.875C22.75 36.1166 22.5541 36.3125 22.3125 36.3125C22.0709 36.3125 21.875 36.1166 21.875 35.875V22.3125Z" fill="#D48DFF"/>
<path fill-rule="evenodd" clip-rule="evenodd" d="M24.0625 27.125C24.3041 27.125 24.5 27.3209 24.5 27.5625V28.875C24.5 29.1166 24.3041 29.3125 24.0625 29.3125C23.8209 29.3125 23.625 29.1166 23.625 28.875V27.5625C23.625 27.3209 23.8209 27.125 24.0625 27.125Z" fill="#170460"/>
<path d="M29.3125 3.5H32.8125V8.75H29.3125V3.5Z" fill="#E7C1FF"/>
<path d="M22.75 3.5H26.25V8.75H22.75V3.5Z" fill="#E7C1FF"/>
<path d="M15.75 3.5H19.25V8.75H15.75V3.5Z" fill="#E7C1FF"/>
<path d="M9.1875 3.5H12.6875V8.75H9.1875V3.5Z" fill="#E7C1FF"/>
<path d="M7 17.5H35V18.8125H7V17.5Z" fill="#933FE7"/>
<path d="M6.75816 10.1087C6.90637 9.81225 7.20935 9.625 7.54078 9.625H34.4592C34.7906 9.625 35.0936 9.81225 35.2418 10.1087L37.8668 15.3587C38.1577 15.9405 37.7347 16.625 37.0842 16.625H4.91578C4.26532 16.625 3.84226 15.9405 4.13316 15.3587L6.75816 10.1087Z" fill="#A653F9"/>
<path fill-rule="evenodd" clip-rule="evenodd" d="M7.54078 8.75H34.4592C35.1221 8.75 35.728 9.1245 36.0245 9.71738L38.6495 14.9674C39.2313 16.131 38.3851 17.5 37.0842 17.5H4.91578C3.61486 17.5 2.76874 16.131 3.35053 14.9674L5.97553 9.71738C6.27197 9.1245 6.87793 8.75 7.54078 8.75ZM7.54078 9.625C7.20935 9.625 6.90637 9.81225 6.75815 10.1087L4.13315 15.3587C3.84226 15.9405 4.26532 16.625 4.91578 16.625H37.0842C37.7347 16.625 38.1577 15.9405 37.8668 15.3587L35.2418 10.1087C35.0936 9.81225 34.7906 9.625 34.4592 9.625H7.54078Z" fill="#1D0576"/>
<path fill-rule="evenodd" clip-rule="evenodd" d="M4.375 16.1875C4.375 15.9459 4.57088 15.75 4.8125 15.75H37.1875C37.4291 15.75 37.625 15.9459 37.625 16.1875C37.625 16.4291 37.4291 16.625 37.1875 16.625H4.8125C4.57088 16.625 4.375 16.4291 4.375 16.1875Z" fill="#E7C1FF"/>
<path d="M29.3125 9.625H32.8125L35.4375 16.625H31.5L29.3125 9.625Z" fill="#EFFFFF"/>
<path d="M22.75 9.625H26.25L27.5625 16.625H23.625L22.75 9.625Z" fill="#EFFFFF"/>
<path d="M15.75 9.625H19.25L18.375 16.625H14.4375L15.75 9.625Z" fill="#EFFFFF"/>
<path d="M9.1875 9.625H12.6875L10.5 16.625H6.5625L9.1875 9.625Z" fill="#EFFFFF"/>
</svg>
