<svg width="42" height="40" viewBox="0 0 42 40" fill="none" xmlns="http://www.w3.org/2000/svg">
<path d="M11.1915 12.5347L7.11202 13.3532C3.20145 14.1377 1.73864 18.9606 4.55446 21.7854L8.28443 25.5272C8.99093 26.2359 9.29751 27.2503 9.10185 28.2317L8.49471 31.2771C7.6809 35.359 11.9195 38.5901 15.6399 36.7239L19.655 34.7101C20.5014 34.2855 21.4986 34.2855 22.345 34.7101L26.3601 36.7239C30.0805 38.5901 34.3191 35.359 33.5053 31.2771L32.8982 28.2317C32.7025 27.2503 33.0091 26.2359 33.7156 25.5272L37.4455 21.7854C40.2614 18.9606 38.7986 14.1378 34.888 13.3532L30.8085 12.5347C29.9789 12.3682 29.2583 11.8593 28.824 11.1332L25.2911 5.22628C23.3504 1.98159 18.6496 1.98159 16.7089 5.22627L16.2043 6.07004L13.176 11.1332C12.7417 11.8593 12.0211 12.3682 11.1915 12.5347Z" fill="#C86DFF" stroke="#170460" stroke-width="2" stroke-linecap="round" stroke-linejoin="round"/>
<path d="M19 20.5L14.5 27.5" stroke="#D48DFF" stroke-width="2" stroke-linecap="round" stroke-linejoin="round"/>
<path d="M39.3687 18.4398L34.361 23.4634C33.1109 24.7174 31.1853 25.0004 29.6274 24.1591L21 19.5L28.9639 13C29.1938 13.1665 29.459 13.2839 29.7434 13.341L38.3457 15.0669C39.9099 15.3808 40.495 17.3099 39.3687 18.4398Z" fill="#D289FF"/>
<path d="M25 18L33 17" stroke="#E2B3FF" stroke-width="2" stroke-linecap="round" stroke-linejoin="round"/>
<path d="M20.1033 33.3665L11.5333 37.6651C10.8078 38.029 10.0331 37.9084 9.46728 37.5L21 19.5L39.9536 17C39.963 17.5081 39.7799 18.0272 39.3687 18.4398L32.2537 25.5774C31.7827 26.0499 31.5783 26.7261 31.7087 27.3804L33.3248 35.4864C33.6503 37.1192 31.9549 38.4116 30.4667 37.6651L21.8967 33.3665C21.3324 33.0835 20.6676 33.0835 20.1033 33.3665Z" fill="#AD4DE8"/>
<path d="M31.7088 27.3804L33.3249 35.4864C33.4917 36.3232 33.1277 37.0707 32.5328 37.5L21 19.5L32.2537 25.5774C31.7827 26.0499 31.5784 26.7261 31.7088 27.3804Z" fill="#8732CA"/>
<path d="M3.65432 15.0669L12.2566 13.341C12.8096 13.23 13.2901 12.8907 13.5796 12.4067L19.2835 2.86989C19.6717 2.22097 20.3358 1.8965 20.9999 1.89648V19.5L2.11864 16.5C2.30669 15.8144 2.85157 15.228 3.65432 15.0669Z" fill="#E4B8FF"/>
<path d="M6 16L19.75 17.75L20 5" stroke="#EED2FF" stroke-width="2" stroke-linecap="round" stroke-linejoin="round"/>
<path d="M19.75 17.7501L16.5 17.3364" stroke="#FFFBF0" stroke-width="2" stroke-linecap="round" stroke-linejoin="round"/>
<circle cx="20.75" cy="23.25" r="0.75" fill="#9632D3"/>
<ellipse cx="22.75" cy="25.25" rx="0.25" ry="0.25" fill="#9632D3"/>
<ellipse cx="19.25" cy="27.25" rx="0.25" ry="0.25" fill="#9632D3"/>
<ellipse cx="22.25" cy="26.75" rx="0.25" ry="0.25" fill="#9632D3"/>
<ellipse cx="25.75" cy="28.75" rx="0.25" ry="0.25" fill="#9632D3"/>
<ellipse cx="22.25" cy="23.25" rx="0.25" ry="0.25" fill="#9632D3"/>
<ellipse cx="20.75" cy="21.25" rx="0.25" ry="0.25" fill="#9632D3"/>
<ellipse cx="23.25" cy="28.25" rx="0.25" ry="0.25" fill="#9632D3"/>
<ellipse cx="21.5" cy="25" rx="0.5" ry="0.5" fill="#9632D3"/>
<ellipse cx="21" cy="27" rx="0.5" ry="0.5" fill="#9632D3"/>
<ellipse cx="24" cy="27" rx="0.5" ry="0.5" fill="#9632D3"/>
<ellipse cx="19.5" cy="25.5" rx="0.5" ry="0.5" fill="#9632D3"/>
</svg>
