<svg width="40" height="40" viewBox="0 0 40 40" fill="none" xmlns="http://www.w3.org/2000/svg">
<g filter="url(#filter0_b_109_317)">
<rect width="40" height="40" rx="10" fill="#290F56"/>
<rect x="0.5" y="0.5" width="39" height="39" rx="9.5" stroke="url(#paint0_linear_109_317)"/>
<path d="M9.33331 8.66667C9.33331 7.5621 10.2287 6.66667 11.3333 6.66667H28.6666C29.7712 6.66667 30.6666 7.5621 30.6666 8.66667V31.3333C30.6666 32.4379 29.7712 33.3333 28.6666 33.3333H11.3333C10.2287 33.3333 9.33331 32.4379 9.33331 31.3333V8.66667Z" fill="#933FE7"/>
<path fill-rule="evenodd" clip-rule="evenodd" d="M11.3333 6H28.6666C30.1394 6 31.3333 7.19391 31.3333 8.66667V31.3333C31.3333 32.8061 30.1394 34 28.6666 34H11.3333C9.86053 34 8.66663 32.8061 8.66663 31.3333V8.66667C8.66663 7.19391 9.86053 6 11.3333 6ZM11.3333 6.66667C10.2287 6.66667 9.33329 7.5621 9.33329 8.66667V31.3333C9.33329 32.4379 10.2287 33.3333 11.3333 33.3333H28.6666C29.7712 33.3333 30.6666 32.4379 30.6666 31.3333V8.66667C30.6666 7.5621 29.7712 6.66667 28.6666 6.66667H11.3333Z" fill="#170460"/>
<path d="M9.33331 11.3333H30.6666V31.3333C30.6666 32.4379 29.7712 33.3333 28.6666 33.3333H11.3333C10.2287 33.3333 9.33331 32.4379 9.33331 31.3333V11.3333Z" fill="#C86DFF"/>
<path fill-rule="evenodd" clip-rule="evenodd" d="M13.3333 21.3333C13.3333 21.1492 13.4826 21 13.6666 21H16.3333C16.5174 21 16.6666 21.1492 16.6666 21.3333C16.6666 21.5174 16.5174 21.6667 16.3333 21.6667H13.6666C13.4826 21.6667 13.3333 21.5174 13.3333 21.3333Z" fill="#D289FF"/>
<path fill-rule="evenodd" clip-rule="evenodd" d="M18.6666 22.3333C18.6666 22.1492 18.8159 22 19 22H21.6666C21.8507 22 22 22.1492 22 22.3333C22 22.5174 21.8507 22.6667 21.6666 22.6667H19C18.8159 22.6667 18.6666 22.5174 18.6666 22.3333Z" fill="#D289FF"/>
<path fill-rule="evenodd" clip-rule="evenodd" d="M12 24.6667C12 24.4826 12.1492 24.3333 12.3333 24.3333H14C14.1841 24.3333 14.3333 24.4826 14.3333 24.6667C14.3333 24.8508 14.1841 25 14 25H12.3333C12.1492 25 12 24.8508 12 24.6667Z" fill="#D289FF"/>
<path fill-rule="evenodd" clip-rule="evenodd" d="M9.33331 20C9.33331 19.8159 9.48255 19.6667 9.66665 19.6667H11.3333C11.5174 19.6667 11.6666 19.8159 11.6666 20C11.6666 20.1841 11.5174 20.3333 11.3333 20.3333H9.66665C9.48255 20.3333 9.33331 20.1841 9.33331 20Z" fill="#D289FF"/>
<path fill-rule="evenodd" clip-rule="evenodd" d="M16.3333 25.3333C16.3333 25.1492 16.4826 25 16.6666 25H19.3333C19.5174 25 19.6666 25.1492 19.6666 25.3333C19.6666 25.5174 19.5174 25.6667 19.3333 25.6667H16.6666C16.4826 25.6667 16.3333 25.5174 16.3333 25.3333Z" fill="#D289FF"/>
<path fill-rule="evenodd" clip-rule="evenodd" d="M15.3333 20C15.5174 20 15.6667 20.1492 15.6667 20.3333V22C15.6667 22.1841 15.5174 22.3333 15.3333 22.3333C15.1492 22.3333 15 22.1841 15 22V20.3333C15 20.1492 15.1492 20 15.3333 20Z" fill="#D289FF"/>
<path fill-rule="evenodd" clip-rule="evenodd" d="M29.6666 20C29.8507 20 30 20.1492 30 20.3333V22C30 22.1841 29.8507 22.3333 29.6666 22.3333C29.4826 22.3333 29.3333 22.1841 29.3333 22V20.3333C29.3333 20.1492 29.4826 20 29.6666 20Z" fill="#D289FF"/>
<path fill-rule="evenodd" clip-rule="evenodd" d="M13 24C13.1841 24 13.3333 24.1492 13.3333 24.3333V25.3333C13.3333 25.5174 13.1841 25.6667 13 25.6667C12.8159 25.6667 12.6666 25.5174 12.6666 25.3333V24.3333C12.6666 24.1492 12.8159 24 13 24Z" fill="#D289FF"/>
<path fill-rule="evenodd" clip-rule="evenodd" d="M10.3333 19.3333C10.5174 19.3333 10.6667 19.4826 10.6667 19.6667V20.6667C10.6667 20.8508 10.5174 21 10.3333 21C10.1492 21 10 20.8508 10 20.6667V19.6667C10 19.4826 10.1492 19.3333 10.3333 19.3333Z" fill="#D289FF"/>
<path fill-rule="evenodd" clip-rule="evenodd" d="M17.6666 24.3333C17.8507 24.3333 18 24.4826 18 24.6667V26.3333C18 26.5174 17.8507 26.6667 17.6666 26.6667C17.4826 26.6667 17.3333 26.5174 17.3333 26.3333V24.6667C17.3333 24.4826 17.4826 24.3333 17.6666 24.3333Z" fill="#D289FF"/>
<path d="M20.6667 21C20.6667 20.6318 20.9652 20.3333 21.3334 20.3333H27.3334C27.7015 20.3333 28 20.6318 28 21V32.6667H20.6667V21Z" fill="#B054E9"/>
<path fill-rule="evenodd" clip-rule="evenodd" d="M28.6667 33.3333H20V21C20 20.2636 20.597 19.6667 21.3333 19.6667H27.3333C28.0697 19.6667 28.6667 20.2636 28.6667 21V33.3333ZM21.3333 20.3333C20.9651 20.3333 20.6667 20.6318 20.6667 21V32.6667H28V21C28 20.6318 27.7015 20.3333 27.3333 20.3333H21.3333Z" fill="#170460"/>
<path fill-rule="evenodd" clip-rule="evenodd" d="M24.3333 20.3333C24.5174 20.3333 24.6667 20.4826 24.6667 20.6667V32.3333C24.6667 32.5174 24.5174 32.6667 24.3333 32.6667C24.1492 32.6667 24 32.5174 24 32.3333V20.6667C24 20.4826 24.1492 20.3333 24.3333 20.3333Z" fill="#9632D3"/>
<path fill-rule="evenodd" clip-rule="evenodd" d="M25.6666 20.3333C25.8507 20.3333 26 20.4826 26 20.6667V32.3333C26 32.5174 25.8507 32.6667 25.6666 32.6667C25.4826 32.6667 25.3333 32.5174 25.3333 32.3333V20.6667C25.3333 20.4826 25.4826 20.3333 25.6666 20.3333Z" fill="#9632D3"/>
<path fill-rule="evenodd" clip-rule="evenodd" d="M27 20.3333C27.1841 20.3333 27.3334 20.4826 27.3334 20.6667V32.3333C27.3334 32.5174 27.1841 32.6667 27 32.6667C26.8159 32.6667 26.6667 32.5174 26.6667 32.3333V20.6667C26.6667 20.4826 26.8159 20.3333 27 20.3333Z" fill="#9632D3"/>
<path fill-rule="evenodd" clip-rule="evenodd" d="M23 20.3333C23.1841 20.3333 23.3334 20.4826 23.3334 20.6667V32.3333C23.3334 32.5174 23.1841 32.6667 23 32.6667C22.8159 32.6667 22.6667 32.5174 22.6667 32.3333V20.6667C22.6667 20.4826 22.8159 20.3333 23 20.3333Z" fill="#9632D3"/>
<path fill-rule="evenodd" clip-rule="evenodd" d="M21.6666 20.3333C21.8507 20.3333 22 20.4826 22 20.6667V32.3333C22 32.5174 21.8507 32.6667 21.6666 32.6667C21.4826 32.6667 21.3333 32.5174 21.3333 32.3333V20.6667C21.3333 20.4826 21.4826 20.3333 21.6666 20.3333Z" fill="#9632D3"/>
<path fill-rule="evenodd" clip-rule="evenodd" d="M20.6667 21C20.6667 20.6318 20.9652 20.3333 21.3334 20.3333H27.3334C27.5174 20.3333 27.6667 20.4826 27.6667 20.6667C27.6667 20.8508 27.5174 21 27.3334 21H21.3334V31.3333C21.3334 31.5174 21.1841 31.6667 21 31.6667C20.8159 31.6667 20.6667 31.5174 20.6667 31.3333V21Z" fill="#D48DFF"/>
<path fill-rule="evenodd" clip-rule="evenodd" d="M22.3333 24.6667C22.5174 24.6667 22.6667 24.8159 22.6667 25V26C22.6667 26.1841 22.5174 26.3333 22.3333 26.3333C22.1492 26.3333 22 26.1841 22 26V25C22 24.8159 22.1492 24.6667 22.3333 24.6667Z" fill="#170460"/>
<path d="M26.3333 6.66667H29V10.6667H26.3333V6.66667Z" fill="#E7C1FF"/>
<path d="M21.3333 6.66667H24V10.6667H21.3333V6.66667Z" fill="#E7C1FF"/>
<path d="M16 6.66667H18.6667V10.6667H16V6.66667Z" fill="#E7C1FF"/>
<path d="M11 6.66667H13.6667V10.6667H11V6.66667Z" fill="#E7C1FF"/>
<path d="M9.33331 17.3333H30.6666V18.3333H9.33331V17.3333Z" fill="#933FE7"/>
<path d="M9.14906 11.7019C9.26199 11.476 9.49283 11.3333 9.74535 11.3333H30.2546C30.5071 11.3333 30.738 11.476 30.8509 11.7019L32.8509 15.7019C33.0726 16.1451 32.7502 16.6667 32.2546 16.6667H7.74535C7.24976 16.6667 6.92743 16.1451 7.14906 15.7019L9.14906 11.7019Z" fill="#A653F9"/>
<path fill-rule="evenodd" clip-rule="evenodd" d="M9.74533 10.6667H30.2546C30.7596 10.6667 31.2213 10.952 31.4472 11.4037L33.4472 15.4037C33.8905 16.2903 33.2458 17.3333 32.2546 17.3333H7.74533C6.75416 17.3333 6.10949 16.2903 6.55276 15.4037L8.55276 11.4037C8.77862 10.952 9.2403 10.6667 9.74533 10.6667ZM9.74533 11.3333C9.49282 11.3333 9.26198 11.476 9.14905 11.7019L7.14905 15.7019C6.92741 16.1451 7.24974 16.6667 7.74533 16.6667H32.2546C32.7502 16.6667 33.0725 16.1451 32.8509 15.7019L30.8509 11.7019C30.738 11.476 30.5071 11.3333 30.2546 11.3333H9.74533Z" fill="#1D0576"/>
<path fill-rule="evenodd" clip-rule="evenodd" d="M7.33331 16.3333C7.33331 16.1492 7.48255 16 7.66665 16H32.3333C32.5174 16 32.6666 16.1492 32.6666 16.3333C32.6666 16.5174 32.5174 16.6667 32.3333 16.6667H7.66665C7.48255 16.6667 7.33331 16.5174 7.33331 16.3333Z" fill="#E7C1FF"/>
<path d="M26.3333 11.3333H29L31 16.6667H28L26.3333 11.3333Z" fill="#EFFFFF"/>
<path d="M21.3333 11.3333H24L25 16.6667H22L21.3333 11.3333Z" fill="#EFFFFF"/>
<path d="M16 11.3333H18.6667L18 16.6667H15L16 11.3333Z" fill="#EFFFFF"/>
<path d="M11 11.3333H13.6667L12 16.6667H9L11 11.3333Z" fill="#EFFFFF"/>
</g>
<defs>
<filter id="filter0_b_109_317" x="-10" y="-10" width="60" height="60" filterUnits="userSpaceOnUse" color-interpolation-filters="sRGB">
<feFlood flood-opacity="0" result="BackgroundImageFix"/>
<feGaussianBlur in="BackgroundImageFix" stdDeviation="5"/>
<feComposite in2="SourceAlpha" operator="in" result="effect1_backgroundBlur_109_317"/>
<feBlend mode="normal" in="SourceGraphic" in2="effect1_backgroundBlur_109_317" result="shape"/>
</filter>
<linearGradient id="paint0_linear_109_317" x1="40" y1="20" x2="0" y2="20" gradientUnits="userSpaceOnUse">
<stop stop-color="#F40AB1"/>
<stop offset="0.703644" stop-color="#742AF7"/>
</linearGradient>
</defs>
</svg>
