<svg width="42" height="42" viewBox="0 0 42 42" fill="none" xmlns="http://www.w3.org/2000/svg">
<g clip-path="url(#clip0_4_285)">
<path d="M21.4365 9.6452C21.6206 7.94291 21.5524 6.53501 20.593 5.36454C19.2073 3.67386 17.425 3.15213 15.6758 4.16203C13.9272 5.17161 13.7947 7.79595 13.1715 8.15573C12.5484 8.5155 10.2094 7.31808 8.46072 8.32767C6.71153 9.33756 6.27244 11.1418 7.04352 13.1873C7.59559 14.6518 8.84289 15.4065 10.4665 16.1071C12.6372 17.0437 15.8422 17.754 17.665 18.1117C18.4807 18.2717 19.2794 17.8117 19.5502 17.0258C20.1642 15.2438 21.177 12.0442 21.4365 9.6452Z" fill="#E4B8FF"/>
<path fill-rule="evenodd" clip-rule="evenodd" d="M22.3064 9.73927C22.4953 7.99277 22.4661 6.26941 21.2697 4.80985C20.4919 3.86084 19.5508 3.17651 18.4888 2.90317C17.41 2.62551 16.2931 2.79528 15.2383 3.40424C14.0911 4.0666 13.5298 5.22265 13.1888 6.07868C13.1009 6.29926 13.0231 6.51268 12.9546 6.70049C12.8841 6.89393 12.8258 7.05364 12.7696 7.19153C12.7446 7.25279 12.7226 7.30329 12.7033 7.34466C12.6578 7.34069 12.603 7.33452 12.5375 7.32552C12.39 7.30526 12.2225 7.27589 12.0197 7.24024C11.8228 7.20562 11.5991 7.1663 11.3641 7.13212C10.4523 6.99948 9.17046 6.90753 8.02323 7.56988C6.96846 8.17885 6.26304 9.06121 5.96412 10.1343C5.66985 11.1907 5.79197 12.3478 6.22478 13.496C6.91331 15.3225 8.47087 16.199 10.1198 16.9105C12.3862 17.8884 15.6757 18.613 17.4965 18.9703C18.7407 19.2144 19.9644 18.5097 20.3775 17.3108C20.9907 15.531 22.0352 12.2471 22.3064 9.73927ZM12.8637 7.34837C12.8636 7.34829 12.8614 7.3485 12.8572 7.34923C12.8617 7.34882 12.8638 7.34845 12.8637 7.34837ZM12.6303 7.48023C12.6275 7.4835 12.6262 7.48537 12.6262 7.48549C12.6263 7.48561 12.6276 7.48397 12.6303 7.48023ZM20.593 5.36452C21.5524 6.535 21.6206 7.9429 21.4365 9.64519C21.1771 12.0441 20.1642 15.2437 19.5502 17.0258C19.2795 17.8117 18.4807 18.2717 17.665 18.1117C15.8422 17.754 12.6372 17.0437 10.4665 16.1071C8.8429 15.4065 7.5956 14.6518 7.04353 13.1873C6.27245 11.1418 6.71154 9.33755 8.46073 8.32765C9.55572 7.69546 10.8822 7.92867 11.8739 8.10302C12.4659 8.2071 12.9386 8.2902 13.1715 8.15571C13.4045 8.02123 13.5688 7.5703 13.7747 7.00558C14.1196 6.05957 14.5808 4.79421 15.6758 4.16201C17.425 3.15212 19.2073 3.67385 20.593 5.36452Z" fill="#170460"/>
<path fill-rule="evenodd" clip-rule="evenodd" d="M20.2108 11.6021C20.4477 11.6495 20.6014 11.88 20.554 12.117C20.1936 13.919 19.2133 16.2903 18.7722 17.2458C18.715 17.3698 18.6032 17.46 18.4699 17.4896C17.5862 17.686 16.5431 17.5592 15.6339 17.3463C14.715 17.1312 13.8776 16.8148 13.3792 16.5847C13.1598 16.4835 13.064 16.2236 13.1653 16.0042C13.2665 15.7848 13.5265 15.689 13.7459 15.7903C14.1953 15.9977 14.9767 16.2938 15.8333 16.4943C16.6146 16.6772 17.4145 16.7699 18.071 16.6737C18.535 15.6355 19.379 13.5302 19.696 11.9454C19.7434 11.7084 19.9739 11.5548 20.2108 11.6021Z" fill="#F3DEFF"/>
<path d="M30.8067 23.4201C32.6268 24.2146 34.003 25.0935 34.6182 26.7321C35.5068 29.099 34.9873 31.1919 32.9466 32.3701C30.9065 33.548 28.1892 32.1709 27.4621 32.5906C26.7351 33.0104 26.5691 36.0522 24.529 37.23C22.4882 38.4083 20.4161 37.8115 18.8105 35.8587C17.6609 34.4605 17.6326 32.7716 17.8793 30.7353C18.2219 27.9065 19.4648 24.0949 20.1617 22.1093C20.4351 21.3304 21.2246 20.8733 22.0362 21.0243C24.1339 21.4147 28.1427 22.2572 30.8067 23.4201Z" fill="#C86DFF"/>
<path fill-rule="evenodd" clip-rule="evenodd" d="M31.1568 22.6181C33.0168 23.4301 34.6896 24.4328 35.4374 26.4246C35.9294 27.735 36.06 29.0456 35.7227 30.2355C35.381 31.4413 34.5826 32.436 33.3841 33.1279C32.0934 33.8731 30.6465 33.7801 29.5898 33.6311C29.3188 33.5929 29.0606 33.5487 28.8313 33.5094C28.5962 33.4692 28.3985 33.4354 28.2237 33.4121C28.0923 33.3947 27.9935 33.386 27.92 33.3837C27.8853 33.4485 27.8434 33.5384 27.7928 33.6609C27.7255 33.8239 27.6559 34.012 27.5733 34.2358C27.4926 34.4539 27.4018 34.6997 27.2994 34.9535C26.9001 35.9431 26.2571 37.2427 24.9665 37.9878C23.768 38.6798 22.5074 38.8738 21.2923 38.5669C20.0932 38.264 19.0235 37.4956 18.1346 36.4144C16.737 34.7147 16.7608 32.6928 17.0106 30.6301C17.3661 27.6953 18.6404 23.8015 19.3361 21.8195C19.7524 20.6336 20.9602 19.9341 22.1962 20.1641C24.2897 20.5536 28.3901 21.4104 31.1568 22.6181ZM27.981 33.2855C27.981 33.2855 27.9802 33.2865 27.9785 33.2884C27.9801 33.2863 27.981 33.2854 27.981 33.2855ZM27.8082 33.3867C27.8058 33.3872 27.8045 33.3874 27.8045 33.3874C27.8044 33.3873 27.8056 33.3871 27.8082 33.3867ZM34.6182 26.7321C34.003 25.0935 32.6268 24.2146 30.8067 23.4201C28.1427 22.2572 24.1339 21.4147 22.0362 21.0243C21.2246 20.8733 20.4351 21.3304 20.1617 22.1093C19.4648 24.0949 18.2219 27.9065 17.8793 30.7354C17.6326 32.7716 17.6609 34.4606 18.8105 35.8587C20.4161 37.8115 22.4883 38.4083 24.529 37.2301C25.8065 36.4925 26.3491 35.024 26.7548 33.9262C26.997 33.2708 27.1904 32.7475 27.4622 32.5906C27.7339 32.4337 28.2838 32.5279 28.9724 32.6459C30.1261 32.8434 31.6691 33.1077 32.9466 32.3701C34.9873 31.1919 35.5068 29.099 34.6182 26.7321Z" fill="#170460"/>
<path fill-rule="evenodd" clip-rule="evenodd" d="M21.3311 22.3015C21.328 22.3039 21.3054 22.3234 21.2838 22.3859C20.7683 23.8717 20.0917 26.1108 19.628 28.3277C19.1592 30.5687 18.9273 32.7029 19.2384 34.0249C19.2937 34.2601 19.1479 34.4956 18.9127 34.5509C18.6775 34.6063 18.442 34.4605 18.3867 34.2253C18.0264 32.6943 18.3035 30.3861 18.7715 28.1485C19.2446 25.8869 19.9326 23.6112 20.4571 22.0991C20.52 21.9178 20.6275 21.7387 20.7977 21.6078C20.9741 21.4722 21.1895 21.4107 21.4185 21.4267C22.0887 21.4736 23.6383 21.694 26.7733 22.321C27.0102 22.3683 27.1639 22.5988 27.1165 22.8358C27.0691 23.0727 26.8386 23.2263 26.6017 23.179C23.4665 22.5519 21.966 22.3421 21.3574 22.2995C21.3404 22.2984 21.3331 22.3005 21.3325 22.3006L21.3325 22.3006C21.3324 22.3007 21.3324 22.3007 21.3323 22.3007C21.3322 22.3007 21.3321 22.3007 21.3311 22.3015Z" fill="#E1B0FF"/>
<path d="M31.0101 21.2179C32.9182 21.4128 34.4976 21.3283 35.8161 20.252C37.7205 18.6973 38.3164 16.7077 37.1943 14.7642C36.0725 12.8212 33.13 12.6893 32.7303 11.9969C32.3305 11.3045 33.6875 8.69033 32.5658 6.74738C31.4437 4.80383 29.4228 4.32529 27.1241 5.19703C25.4783 5.82116 24.6243 7.21591 23.8289 9.02973C22.7392 11.5143 21.9095 15.2077 21.5078 17.2122C21.3428 18.0351 21.8065 18.8413 22.6011 19.1115C24.5639 19.779 28.2557 20.9365 31.0101 21.2179Z" fill="#B65CED"/>
<path fill-rule="evenodd" clip-rule="evenodd" d="M30.9211 22.0883C32.8746 22.2879 34.765 22.2395 36.3694 20.9298C37.4238 20.0691 38.1803 19.0356 38.4861 17.8772C38.7967 16.701 38.6188 15.4814 37.952 14.3266C37.2317 13.079 35.964 12.47 35.0105 12.0967C34.7652 12.0007 34.5276 11.9158 34.3172 11.8405C34.1012 11.7633 33.9205 11.6986 33.7641 11.6359C33.6652 11.5963 33.5893 11.5626 33.5318 11.5341C33.5359 11.4701 33.5447 11.3875 33.5598 11.282C33.5837 11.1152 33.6181 10.9264 33.6592 10.7007C33.6992 10.4809 33.7444 10.2327 33.7839 9.97226C33.9374 8.95983 34.0438 7.55742 33.3235 6.30984C32.6568 5.15502 31.6896 4.39124 30.5157 4.07208C29.3597 3.75778 28.0864 3.89623 26.8138 4.37884C24.8108 5.13843 23.8347 6.83783 23.0275 8.67827C21.8955 11.2595 21.051 15.0385 20.6498 17.0401C20.3986 18.2933 21.1082 19.528 22.3194 19.9398C24.279 20.6063 28.0565 21.7956 30.9211 22.0883ZM33.532 11.6707C33.5321 11.6706 33.5319 11.6688 33.5312 11.6655C33.5316 11.6691 33.532 11.6707 33.532 11.6707ZM33.4178 11.469C33.4152 11.4667 33.4137 11.4656 33.4137 11.4657C33.4136 11.4657 33.4149 11.4668 33.4178 11.469ZM35.816 20.252C34.4975 21.3283 32.9181 21.4128 31.0101 21.2179C28.2557 20.9364 24.5639 19.7789 22.6011 19.1114C21.8065 18.8412 21.3428 18.035 21.5077 17.2121C21.9095 15.2077 22.7392 11.5143 23.8289 9.0297C24.6243 7.21587 25.4782 5.82112 27.124 5.19699C29.4228 4.32525 31.4437 4.8038 32.5658 6.74734C33.2682 7.964 32.9987 9.44387 32.7972 10.5502C32.6769 11.2107 32.5808 11.7381 32.7303 11.9969C32.8797 12.2557 33.3844 12.4362 34.0166 12.6623C35.0755 13.0409 36.4918 13.5475 37.1943 14.7641C38.3164 16.7077 37.7205 18.6973 35.816 20.252Z" fill="#170460"/>
<path fill-rule="evenodd" clip-rule="evenodd" d="M20.7964 21.6094C20.9723 21.4734 21.188 21.4105 21.4183 21.4266C21.6758 21.4446 22.0562 21.4876 22.595 21.5669C22.834 21.6021 22.9993 21.8245 22.9641 22.0635C22.9289 22.3026 22.7065 22.4678 22.4675 22.4326C21.9389 22.3547 21.5831 22.3153 21.3573 22.2995C21.3409 22.2983 21.334 22.3004 21.3335 22.3005L21.3335 22.3005C21.3334 22.3005 21.3334 22.3005 21.3334 22.3006C21.3331 22.3006 21.3329 22.3006 21.3316 22.3016C21.3277 22.3046 21.3048 22.3251 21.2831 22.3877C21.1032 22.9065 20.9032 23.5182 20.6993 24.1896C20.6291 24.4208 20.3848 24.5513 20.1536 24.4811C19.9224 24.4109 19.7919 24.1665 19.8621 23.9353C20.0691 23.2535 20.2726 22.6309 20.4564 22.1009C20.5192 21.9198 20.6267 21.7406 20.7964 21.6094Z" fill="#FEDAFF"/>
<path d="M16.2769 28.9014C15.5852 30.4676 14.8221 31.6528 13.406 32.1868C11.3606 32.9581 9.55627 32.5188 8.54638 30.7696C7.53679 29.0209 8.73421 26.6819 8.37444 26.0588C8.01466 25.4357 5.39032 25.3031 4.38074 23.5545C3.37084 21.8053 3.89271 20.0232 5.58325 18.6373C6.7936 17.645 8.25114 17.6151 10.0075 17.8202C12.3557 18.0944 15.4865 19.0818 17.2439 19.6834C18.0303 19.9527 18.4921 20.7504 18.3336 21.5665C17.9743 23.4167 17.2516 26.6941 16.2769 28.9014Z" fill="#DA9DFF"/>
<path fill-rule="evenodd" clip-rule="evenodd" d="M17.0773 29.2549C16.3676 30.8618 15.4806 32.3397 13.7148 33.0055C12.5666 33.4385 11.4095 33.5606 10.3531 33.2663C9.27993 32.9673 8.39756 32.2619 7.7886 31.2071C7.12624 30.0599 7.21819 28.7781 7.35084 27.8662C7.38501 27.6312 7.42434 27.4075 7.45896 27.2106C7.4946 27.0078 7.52398 26.8404 7.54424 26.6928C7.55324 26.6273 7.55941 26.5726 7.56338 26.5271C7.52201 26.5078 7.47151 26.4857 7.41025 26.4608C7.27235 26.4045 7.11264 26.3463 6.91921 26.2757C6.7314 26.2073 6.51798 26.1295 6.2974 26.0416C5.44137 25.7005 4.28532 25.1392 3.62296 23.992C3.01399 22.9372 2.84426 21.8204 3.12195 20.7416C3.3953 19.6796 4.07962 18.7385 5.0285 17.9606C6.53804 16.7231 8.32517 16.7428 10.1089 16.9511C12.5607 17.2374 15.7718 18.2546 17.5273 18.8556C18.7269 19.2663 19.4343 20.4885 19.1925 21.7333C18.8337 23.5812 18.0963 26.9474 17.0773 29.2549ZM7.70421 26.6041C7.70409 26.6041 7.70222 26.6028 7.69895 26.6001C7.70269 26.6027 7.70432 26.6041 7.70421 26.6041ZM7.56795 26.3732C7.56722 26.369 7.56701 26.3667 7.56709 26.3666C7.56717 26.3665 7.56754 26.3686 7.56795 26.3732ZM13.406 32.1868C14.8221 31.6528 15.5851 30.4677 16.2769 28.9014C17.2516 26.6941 17.9743 23.4167 18.3336 21.5665C18.492 20.7504 18.0303 19.9527 17.2439 19.6834C15.4865 19.0818 12.3557 18.0944 10.0075 17.8202C8.25113 17.6151 6.7936 17.6451 5.58324 18.6373C3.89271 20.0232 3.37084 21.8053 4.38073 23.5545C5.01292 24.6495 6.27829 25.1108 7.2243 25.4556C7.78902 25.6615 8.23995 25.8259 8.37443 26.0588C8.50892 26.2917 8.42581 26.7644 8.32173 27.3564C8.14739 28.3481 7.91418 29.6746 8.54637 30.7696C9.55627 32.5188 11.3606 32.9581 13.406 32.1868Z" fill="#170460"/>
<path fill-rule="evenodd" clip-rule="evenodd" d="M8.75852 18.2892C8.80589 18.0523 9.03637 17.8986 9.27331 17.946C11.459 18.383 15.0176 19.1801 17.7059 20.6139C17.8716 20.7023 17.9624 20.8866 17.9315 21.0718C17.7116 22.3913 17.3246 24.4398 16.6857 26.4121C16.054 28.3621 15.148 30.3304 13.8395 31.401C13.6525 31.554 13.3769 31.5265 13.2239 31.3395C13.0709 31.1525 13.0984 30.8768 13.2854 30.7238C14.3831 29.8257 15.2272 28.0752 15.8533 26.1424C16.4246 24.3789 16.7911 22.5405 17.0153 21.2413C14.4873 19.9644 11.2125 19.2261 9.10174 18.804C8.86481 18.7567 8.71114 18.5262 8.75852 18.2892Z" fill="#EAC9FF"/>
<path fill-rule="evenodd" clip-rule="evenodd" d="M24.8527 8.33354C25.0827 8.40748 25.2092 8.6539 25.1353 8.88394C24.531 10.7638 23.3045 14.8323 22.8446 17.2165C22.8124 17.3835 22.8922 17.528 23.0233 17.5872C24.2726 18.1515 27.1152 19.0989 31.5578 19.6913C31.7974 19.7232 31.9656 19.9433 31.9337 20.1828C31.9018 20.4223 31.6817 20.5905 31.4422 20.5586C26.9353 19.9577 24.0067 18.9915 22.6631 18.3846C22.1391 18.148 21.8815 17.5896 21.9854 17.0508C22.4564 14.6089 23.6984 10.495 24.3023 8.61618C24.3762 8.38614 24.6226 8.25961 24.8527 8.33354Z" fill="#D48DFF"/>
<path d="M24.5 25.3749C24.5 26.3414 23.7165 27.1249 22.75 27.1249C21.7835 27.1249 21 26.3414 21 25.3749C21 24.4084 21.7835 23.6249 22.75 23.6249C23.7165 23.6249 24.5 24.4084 24.5 25.3749Z" fill="#DBA2FF"/>
<path d="M27.5625 15.7499C27.5625 16.7164 26.779 17.4999 25.8125 17.4999C24.846 17.4999 24.0625 16.7164 24.0625 15.7499C24.0625 14.7834 24.846 13.9999 25.8125 13.9999C26.779 13.9999 27.5625 14.7834 27.5625 15.7499Z" fill="#DBA2FF"/>
<path d="M18.375 14.2186C18.375 15.0643 17.6894 15.7499 16.8437 15.7499C15.998 15.7499 15.3125 15.0643 15.3125 14.2186C15.3125 13.3729 15.998 12.6874 16.8437 12.6874C17.6894 12.6874 18.375 13.3729 18.375 14.2186Z" fill="#F4E1FF"/>
<path d="M16.1875 22.5311C16.1875 23.3768 15.5019 24.0624 14.6562 24.0624C13.8105 24.0624 13.125 23.3768 13.125 22.5311C13.125 21.6854 13.8105 20.9999 14.6562 20.9999C15.5019 20.9999 16.1875 21.6854 16.1875 22.5311Z" fill="#F4E1FF"/>
<path d="M29.75 29.7499C29.75 29.9916 29.5541 30.1874 29.3125 30.1874C29.0708 30.1874 28.875 29.9916 28.875 29.7499C28.875 29.5083 29.0708 29.3124 29.3125 29.3124C29.5541 29.3124 29.75 29.5083 29.75 29.7499Z" fill="#B054E9"/>
<path d="M33.6875 29.3124C33.6875 29.5541 33.4916 29.7499 33.25 29.7499C33.0083 29.7499 32.8125 29.5541 32.8125 29.3124C32.8125 29.0708 33.0083 28.8749 33.25 28.8749C33.4916 28.8749 33.6875 29.0708 33.6875 29.3124Z" fill="#B054E9"/>
<path d="M31.9375 26.6874C31.9375 26.9291 31.7416 27.1249 31.5 27.1249C31.2583 27.1249 31.0625 26.9291 31.0625 26.6874C31.0625 26.4458 31.2583 26.2499 31.5 26.2499C31.7416 26.2499 31.9375 26.4458 31.9375 26.6874Z" fill="#B054E9"/>
<path d="M30.1875 31.0624C30.1875 31.3041 29.9916 31.4999 29.75 31.4999C29.5083 31.4999 29.3125 31.3041 29.3125 31.0624C29.3125 30.8208 29.5083 30.6249 29.75 30.6249C29.9916 30.6249 30.1875 30.8208 30.1875 31.0624Z" fill="#B054E9"/>
<path d="M28 30.6249C28 30.8666 27.8041 31.0624 27.5625 31.0624C27.3208 31.0624 27.125 30.8666 27.125 30.6249C27.125 30.3833 27.3208 30.1874 27.5625 30.1874C27.8041 30.1874 28 30.3833 28 30.6249Z" fill="#B054E9"/>
<path d="M32.375 30.8437C32.375 31.2061 32.0812 31.4999 31.7187 31.4999C31.3563 31.4999 31.0625 31.2061 31.0625 30.8437C31.0625 30.4813 31.3563 30.1874 31.7187 30.1874C32.0812 30.1874 32.375 30.4813 32.375 30.8437Z" fill="#B054E9"/>
<path d="M32.375 28.6562C32.375 29.0186 32.0812 29.3124 31.7187 29.3124C31.3563 29.3124 31.0625 29.0186 31.0625 28.6562C31.0625 28.2938 31.3563 27.9999 31.7187 27.9999C32.0812 27.9999 32.375 28.2938 32.375 28.6562Z" fill="#B054E9"/>
<path d="M33.6875 26.4687C33.6875 26.8311 33.3937 27.1249 33.0312 27.1249C32.6688 27.1249 32.375 26.8311 32.375 26.4687C32.375 26.1063 32.6688 25.8124 33.0312 25.8124C33.3937 25.8124 33.6875 26.1063 33.6875 26.4687Z" fill="#B054E9"/>
<path d="M6.86478 20.4995C6.81429 20.3423 6.90078 20.1739 7.05797 20.1235C7.21516 20.073 7.38352 20.1594 7.43402 20.3166C7.48452 20.4738 7.39802 20.6422 7.24083 20.6927C7.08364 20.7432 6.91528 20.6567 6.86478 20.4995Z" fill="#E5BBFF"/>
<path d="M4.39469 21.607C4.34419 21.4498 4.43069 21.2814 4.58788 21.2309C4.74507 21.1804 4.91343 21.2669 4.96393 21.4241C5.01442 21.5813 4.92793 21.7497 4.77074 21.8002C4.61355 21.8507 4.44519 21.7642 4.39469 21.607Z" fill="#E5BBFF"/>
<path d="M6.08173 22.949C6.03124 22.7918 6.11773 22.6234 6.27492 22.5729C6.43211 22.5224 6.60047 22.6089 6.65097 22.7661C6.70147 22.9233 6.61497 23.0917 6.45778 23.1422C6.30059 23.1926 6.13223 23.1062 6.08173 22.949Z" fill="#E5BBFF"/>
<path d="M6.30588 19.7371C6.25539 19.5799 6.34188 19.4115 6.49907 19.361C6.65626 19.3105 6.82462 19.397 6.87512 19.5542C6.92562 19.7114 6.83912 19.8797 6.68193 19.9302C6.52474 19.9807 6.35638 19.8942 6.30588 19.7371Z" fill="#E5BBFF"/>
<path d="M7.82041 19.5646C7.76991 19.4074 7.85641 19.239 8.0136 19.1885C8.17079 19.138 8.33915 19.2245 8.38965 19.3817C8.44014 19.5389 8.35365 19.7073 8.19646 19.7578C8.03927 19.8082 7.87091 19.7218 7.82041 19.5646Z" fill="#E5BBFF"/>
<path d="M4.92849 20.3365C4.85275 20.1007 4.98249 19.8482 5.21827 19.7724C5.45406 19.6967 5.7066 19.8264 5.78235 20.0622C5.85809 20.298 5.72835 20.5505 5.49257 20.6263C5.25678 20.702 5.00424 20.5723 4.92849 20.3365Z" fill="#E5BBFF"/>
<path d="M5.38568 21.7597C5.30993 21.5239 5.43967 21.2713 5.67546 21.1956C5.91124 21.1198 6.16379 21.2496 6.23953 21.4854C6.31528 21.7212 6.18554 21.9737 5.94975 22.0494C5.71397 22.1252 5.46142 21.9954 5.38568 21.7597Z" fill="#E5BBFF"/>
<path d="M4.98898 23.457C4.91323 23.2212 5.04297 22.9687 5.27876 22.8929C5.51454 22.8172 5.76709 22.9469 5.84283 23.1827C5.91858 23.4185 5.78884 23.671 5.55305 23.7468C5.31727 23.8225 5.06472 23.6928 4.98898 23.457Z" fill="#E5BBFF"/>
<path d="M32.375 13.1249C32.375 13.3666 32.1791 13.5624 31.9375 13.5624C31.6959 13.5624 31.5 13.3666 31.5 13.1249C31.5 12.8833 31.6959 12.6874 31.9375 12.6874C32.1791 12.6874 32.375 12.8833 32.375 13.1249Z" fill="#9941CE"/>
<path d="M31.0625 13.9999C31.0625 14.2416 30.8666 14.4374 30.625 14.4374C30.3834 14.4374 30.1875 14.2416 30.1875 13.9999C30.1875 13.7583 30.3834 13.5624 30.625 13.5624C30.8666 13.5624 31.0625 13.7583 31.0625 13.9999Z" fill="#9941CE"/>
<path d="M29.75 10.4999C29.75 10.7416 29.5541 10.9374 29.3125 10.9374C29.0709 10.9374 28.875 10.7416 28.875 10.4999C28.875 10.2583 29.0709 10.0624 29.3125 10.0624C29.5541 10.0624 29.75 10.2583 29.75 10.4999Z" fill="#9941CE"/>
<path d="M32.8125 9.18744C32.8125 9.42906 32.6166 9.62494 32.375 9.62494C32.1334 9.62494 31.9375 9.42906 31.9375 9.18744C31.9375 8.94581 32.1334 8.74994 32.375 8.74994C32.6166 8.74994 32.8125 8.94581 32.8125 9.18744Z" fill="#9941CE"/>
<path d="M31.9375 6.99994C31.9375 7.24156 31.7416 7.43744 31.5 7.43744C31.2584 7.43744 31.0625 7.24156 31.0625 6.99994C31.0625 6.75831 31.2584 6.56244 31.5 6.56244C31.7416 6.56244 31.9375 6.75831 31.9375 6.99994Z" fill="#9941CE"/>
<path d="M31.0625 8.74994C31.0625 8.99156 30.8666 9.18744 30.625 9.18744C30.3834 9.18744 30.1875 8.99156 30.1875 8.74994C30.1875 8.50831 30.3834 8.31244 30.625 8.31244C30.8666 8.31244 31.0625 8.50831 31.0625 8.74994Z" fill="#9941CE"/>
<path d="M31.9375 11.1562C31.9375 11.5186 31.6437 11.8124 31.2812 11.8124C30.9188 11.8124 30.625 11.5186 30.625 11.1562C30.625 10.7938 30.9188 10.4999 31.2812 10.4999C31.6437 10.4999 31.9375 10.7938 31.9375 11.1562Z" fill="#9941CE"/>
<path d="M34.5625 13.7812C34.5625 14.1436 34.2687 14.4374 33.9062 14.4374C33.5438 14.4374 33.25 14.1436 33.25 13.7812C33.25 13.4188 33.5438 13.1249 33.9062 13.1249C34.2687 13.1249 34.5625 13.4188 34.5625 13.7812Z" fill="#9941CE"/>
<path d="M30.1875 12.4687C30.1875 12.8311 29.8937 13.1249 29.5312 13.1249C29.1688 13.1249 28.875 12.8311 28.875 12.4687C28.875 12.1063 29.1688 11.8124 29.5312 11.8124C29.8937 11.8124 30.1875 12.1063 30.1875 12.4687Z" fill="#9941CE"/>
<path d="M14.9886 8.11185C15.1705 8.06508 15.3558 8.17462 15.4026 8.35651C15.4494 8.5384 15.3398 8.72377 15.158 8.77054C14.9761 8.81731 14.7907 8.70777 14.7439 8.52588C14.6972 8.34399 14.8067 8.15862 14.9886 8.11185Z" fill="#EFD5FF"/>
<path d="M15.9013 8.93039C16.0832 8.88362 16.2686 8.99316 16.3154 9.17505C16.3621 9.35694 16.2526 9.54231 16.0707 9.58908C15.8888 9.63585 15.7034 9.52632 15.6567 9.34442C15.6099 9.16253 15.7194 8.97717 15.9013 8.93039Z" fill="#EFD5FF"/>
<path d="M13.5207 10.596C13.7026 10.5492 13.8879 10.6587 13.9347 10.8406C13.9815 11.0225 13.8719 11.2079 13.69 11.2547C13.5081 11.3014 13.3228 11.1919 13.276 11.01C13.2292 10.8281 13.3388 10.6428 13.5207 10.596Z" fill="#EFD5FF"/>
<path d="M11.9398 8.54459C12.1217 8.49782 12.3071 8.60736 12.3538 8.78925C12.4006 8.97114 12.2911 9.15651 12.1092 9.20328C11.9273 9.25005 11.7419 9.14051 11.6952 8.95862C11.6484 8.77673 11.7579 8.59136 11.9398 8.54459Z" fill="#EFD5FF"/>
<path d="M10.4625 9.62675C10.6444 9.57997 10.8297 9.68951 10.8765 9.8714C10.9233 10.0533 10.8137 10.2387 10.6318 10.2854C10.4499 10.3322 10.2646 10.2227 10.2178 10.0408C10.171 9.85888 10.2806 9.67352 10.4625 9.62675Z" fill="#EFD5FF"/>
<path d="M11.9492 9.94663C12.1311 9.89986 12.3165 10.0094 12.3633 10.1913C12.41 10.3732 12.3005 10.5585 12.1186 10.6053C11.9367 10.6521 11.7514 10.5426 11.7046 10.3607C11.6578 10.1788 11.7674 9.9934 11.9492 9.94663Z" fill="#EFD5FF"/>
<path d="M13.5912 8.8222C13.8641 8.75204 14.1421 8.91635 14.2123 9.18918C14.2824 9.46202 14.1181 9.74007 13.8453 9.81023C13.5725 9.88038 13.2944 9.71608 13.2243 9.44324C13.1541 9.1704 13.3184 8.89235 13.5912 8.8222Z" fill="#EFD5FF"/>
<path d="M15.0592 6.33801C15.332 6.26785 15.6101 6.43215 15.6802 6.70499C15.7504 6.97783 15.5861 7.25588 15.3132 7.32604C15.0404 7.39619 14.7623 7.23189 14.6922 6.95905C14.622 6.68621 14.7863 6.40816 15.0592 6.33801Z" fill="#EFD5FF"/>
<path d="M14.918 9.88555C15.1908 9.8154 15.4689 9.9797 15.539 10.2525C15.6092 10.5254 15.4449 10.8034 15.1721 10.8736C14.8992 10.9437 14.6212 10.7794 14.551 10.5066C14.4809 10.2338 14.6452 9.95571 14.918 9.88555Z" fill="#EFD5FF"/>
</g>
<defs>
<clipPath id="clip0_4_285">
<rect width="42" height="42" fill="white"/>
</clipPath>
</defs>
</svg>
