<svg width="36" height="36" viewBox="0 0 36 36" fill="none" xmlns="http://www.w3.org/2000/svg">
<path fill-rule="evenodd" clip-rule="evenodd" d="M7.20002 3.59998C7.67741 3.59998 8.13525 3.78962 8.47282 4.12718C8.81038 4.46475 9.00002 4.92259 9.00002 5.39998V9.18178C10.4977 7.65406 12.3596 6.53273 14.4104 5.92339C16.4611 5.31404 18.6332 5.23675 20.7221 5.69878C22.811 6.16082 24.7479 7.14698 26.3504 8.56437C27.9529 9.98177 29.1682 11.7837 29.8818 13.8006C29.9684 14.0251 30.0091 14.2648 30.0014 14.5053C29.9938 14.7459 29.938 14.9825 29.8373 15.2011C29.7366 15.4197 29.5931 15.6159 29.4153 15.7781C29.2375 15.9403 29.0289 16.0651 28.802 16.1453C28.575 16.2255 28.3343 16.2593 28.0941 16.2449C27.8539 16.2304 27.619 16.1679 27.4033 16.061C27.1876 15.9542 26.9956 15.8052 26.8385 15.6228C26.6814 15.4405 26.5625 15.2285 26.4888 14.9994C25.9455 13.4636 24.9956 12.1041 23.7406 11.0656C22.4855 10.0271 20.9721 9.34861 19.3618 9.10236C17.7515 8.85612 16.1046 9.05137 14.5965 9.66731C13.0884 10.2833 11.7757 11.2968 10.7982 12.6H16.2C16.6774 12.6 17.1353 12.7896 17.4728 13.1272C17.8104 13.4647 18 13.9226 18 14.4C18 14.8774 17.8104 15.3352 17.4728 15.6728C17.1353 16.0103 16.6774 16.2 16.2 16.2H7.20002C6.72263 16.2 6.2648 16.0103 5.92723 15.6728C5.58967 15.3352 5.40002 14.8774 5.40002 14.4V5.39998C5.40002 4.92259 5.58967 4.46475 5.92723 4.12718C6.2648 3.78962 6.72263 3.59998 7.20002 3.59998ZM7.21442 19.9026C7.43733 19.8238 7.67356 19.7898 7.90963 19.8024C8.14569 19.8149 8.37697 19.8739 8.59025 19.9758C8.80353 20.0778 8.99464 20.2208 9.15266 20.3966C9.31068 20.5724 9.43252 20.7777 9.51122 21.0006C10.0546 22.5363 11.0044 23.8959 12.2595 24.9343C13.5146 25.9728 15.0279 26.6513 16.6382 26.8976C18.2485 27.1438 19.8955 26.9486 21.4035 26.3326C22.9116 25.7167 24.2243 24.7031 25.2018 23.4H19.8C19.3226 23.4 18.8648 23.2103 18.5272 22.8728C18.1897 22.5352 18 22.0774 18 21.6C18 21.1226 18.1897 20.6647 18.5272 20.3272C18.8648 19.9896 19.3226 19.8 19.8 19.8H28.8C29.2774 19.8 29.7353 19.9896 30.0728 20.3272C30.4104 20.6647 30.6 21.1226 30.6 21.6V30.6C30.6 31.0774 30.4104 31.5352 30.0728 31.8728C29.7353 32.2103 29.2774 32.4 28.8 32.4C28.3226 32.4 27.8648 32.2103 27.5272 31.8728C27.1897 31.5352 27 31.0774 27 30.6V26.8182C25.5024 28.3459 23.6404 29.4672 21.5897 30.0766C19.5389 30.6859 17.3668 30.7632 15.2779 30.3012C13.189 29.8391 11.2521 28.853 9.64966 27.4356C8.04719 26.0182 6.83189 24.2162 6.11822 22.1994C6.03949 21.9765 6.00544 21.7402 6.01801 21.5042C6.03058 21.2681 6.08953 21.0368 6.19149 20.8235C6.29346 20.6103 6.43643 20.4192 6.61225 20.2611C6.78808 20.1031 6.99151 19.9813 7.21442 19.9026Z" fill="white"/>
</svg>
