<svg width="21" height="20" viewBox="0 0 21 20" fill="none" xmlns="http://www.w3.org/2000/svg">
<path fill-rule="evenodd" clip-rule="evenodd" d="M4.94873 2C5.21395 2 5.4683 2.10536 5.65584 2.29289C5.84337 2.48043 5.94873 2.73478 5.94873 3V5.101C6.78077 4.25227 7.81516 3.62931 8.95447 3.29078C10.0938 2.95226 11.3005 2.90932 12.461 3.16601C13.6215 3.42269 14.6976 3.97056 15.5878 4.758C16.4781 5.54544 17.1533 6.54654 17.5497 7.667C17.5978 7.79176 17.6204 7.92489 17.6162 8.05854C17.6119 8.19218 17.5809 8.32361 17.525 8.44506C17.4691 8.56651 17.3893 8.67551 17.2905 8.76561C17.1917 8.85571 17.0759 8.92508 16.9498 8.96963C16.8237 9.01417 16.69 9.03298 16.5566 9.02494C16.4231 9.0169 16.2926 8.98217 16.1728 8.92282C16.053 8.86346 15.9463 8.78068 15.859 8.67937C15.7717 8.57806 15.7057 8.46029 15.6647 8.333C15.3629 7.47982 14.8352 6.72451 14.1379 6.14758C13.4406 5.57064 12.5999 5.19369 11.7053 5.05688C10.8107 4.92008 9.89571 5.02855 9.05789 5.37074C8.22006 5.71293 7.49077 6.27602 6.94773 7H9.94873C10.2139 7 10.4683 7.10536 10.6558 7.29289C10.8434 7.48043 10.9487 7.73478 10.9487 8C10.9487 8.26522 10.8434 8.51957 10.6558 8.70711C10.4683 8.89464 10.2139 9 9.94873 9H4.94873C4.68351 9 4.42916 8.89464 4.24162 8.70711C4.05409 8.51957 3.94873 8.26522 3.94873 8V3C3.94873 2.73478 4.05409 2.48043 4.24162 2.29289C4.42916 2.10536 4.68351 2 4.94873 2ZM4.95673 11.057C5.08057 11.0133 5.21181 10.9943 5.34295 11.0013C5.4741 11.0083 5.60259 11.0411 5.72108 11.0977C5.83957 11.1544 5.94574 11.2338 6.03353 11.3315C6.12132 11.4291 6.18901 11.5432 6.23273 11.667C6.53459 12.5202 7.06228 13.2755 7.75955 13.8524C8.45682 14.4294 9.29756 14.8063 10.1922 14.9431C11.0868 15.0799 12.0017 14.9714 12.8396 14.6293C13.6774 14.2871 14.4067 13.724 14.9497 13H11.9487C11.6835 13 11.4292 12.8946 11.2416 12.7071C11.0541 12.5196 10.9487 12.2652 10.9487 12C10.9487 11.7348 11.0541 11.4804 11.2416 11.2929C11.4292 11.1054 11.6835 11 11.9487 11H16.9487C17.2139 11 17.4683 11.1054 17.6558 11.2929C17.8434 11.4804 17.9487 11.7348 17.9487 12V17C17.9487 17.2652 17.8434 17.5196 17.6558 17.7071C17.4683 17.8946 17.2139 18 16.9487 18C16.6835 18 16.4292 17.8946 16.2416 17.7071C16.0541 17.5196 15.9487 17.2652 15.9487 17V14.899C15.1167 15.7477 14.0823 16.3707 12.943 16.7092C11.8037 17.0477 10.5969 17.0907 9.43645 16.834C8.27596 16.5773 7.1999 16.0294 6.30964 15.242C5.41938 14.4546 4.74421 13.4535 4.34773 12.333C4.30399 12.2092 4.28507 12.0779 4.29206 11.9468C4.29904 11.8156 4.33179 11.6871 4.38844 11.5687C4.44508 11.4502 4.52451 11.344 4.62219 11.2562C4.71987 11.1684 4.83289 11.1007 4.95673 11.057Z" fill="#FDDAF3"/>
</svg>
